<?xml version="1.0" encoding="iso-8859-1"?>
<!-- Generator: Adobe Illustrator 19.0.0, SVG Export Plug-In . SVG Version: 6.00 Build 0)  -->
<svg version="1.1" id="Capa_1" xmlns="http://www.w3.org/2000/svg" xmlns:xlink="http://www.w3.org/1999/xlink" x="0px" y="0px"
	 viewBox="0 0 414.08 414.08" style="enable-background:new 0 0 414.08 414.08;" xml:space="preserve">
<path style="fill:#C97943;" d="M232.484,373.44c-39.812-0.249-79.074-9.32-114.96-26.56h-78.08l-0.8-7.12
	c-2.32-20.48-8-74.88-8.64-138.72c-0.56-44.88-0.48-88.96,0-118v-4.88l4.32-2.24c18.969-9.709,39.399-16.248,60.48-19.36l8.48-0.96
	v78.48l24.64,14.64l24.64-14.64V56.16l9.36,1.6c20.744,3.484,40.943,9.67,60.08,18.4l4.64,2.16v192.72
	c-0.924,15.003,3.847,29.802,13.36,41.44c10.985,10.969,26.096,16.781,41.6,16h3.76c26.72,0.48,45.28,0.88,58.64,2.56l25.68,3.2
	l-23.04,11.84C311.239,363.961,272.148,373.33,232.484,373.44L232.484,373.44z"/>
<path style="fill:#593517;" d="M30.004,38.24l4.56-2.16c19.118-8.296,39.368-13.689,60.08-16l8.64-1.36v36.8l-6.96,0.96
	c-19.362,2.503-38.238,7.896-56,16l-11.44,5.28L30.004,38.24z"/>
<path style="fill:#FAC000;" d="M103.684,134V8h49.28v126l-24.64,14.72L103.684,134z"/>
<g>
	<path style="fill:#593517;" d="M246.324,406c-46.522-0.892-92.411-10.95-135.04-29.6l1.04,29.44h-72V347.2h77.52l1.6,0.72
		c35.404,16.737,74.04,25.529,113.2,25.76c45.046,0.081,89.275-12.027,128-35.04l4.24-2.64l4.24,2.64
		c5.821,3.713,10.457,9.016,13.36,15.28l2.88,5.68l-4.96,4.08c-16,12.8-59.92,42.64-134.08,42.64L246.324,406z"/>
	<path style="fill:#593517;" d="M215.844,73.2c-17.953-7.573-36.756-12.946-56-16l-6.72-1.04V19.44l9.2,1.36
		c20.396,3.002,40.406,8.206,59.68,15.52l5.2,2v39.6L215.844,73.2z"/>
</g>
<g>
	<path style="fill:#281211;" d="M285.924,320.4h-3.76c-13.29,0.718-26.269-4.189-35.76-13.52
		c-8.125-10.115-12.202-22.888-11.44-35.84V38.4c0.003-3.278-1.994-6.227-5.04-7.44c-22.157-8.886-45.314-15.038-68.96-18.32V8
		c0-4.418-3.582-8-8-8h-49.68c-4.418,0-8,3.582-8,8v3.6c-24.051,2.248-47.497,8.834-69.2,19.44c-2.491,1.4-4.046,4.023-4.08,6.88
		c0,0.8-0.96,80,0,163.2c0.602,50.278,3.94,100.485,10,150.4v53.92c0,4.418,3.582,8,8,8h72c4.418,0,8-3.582,8-8l-0.72-17.04
		c40.312,16.338,83.308,25.046,126.8,25.68c92.8,0,141.52-46.24,144-48.96c2.325-2.264,3.052-5.709,1.84-8.72
		C378.644,322,357.124,321.6,285.924,320.4L285.924,320.4z M160.964,28.72c19.824,2.925,39.271,7.995,58,15.12v22
		c-18.602-7.784-38.076-13.291-58-16.4V28.72z M111.284,16h33.36v113.44l-16.64,9.92l-16.72-9.92V16z M37.524,43.36
		c18.368-8.05,37.837-13.308,57.76-15.6v20.72c-20.04,2.707-39.563,8.397-57.92,16.88c0.48-9.84,0.56-17.44,0.56-22H37.524z
		 M37.524,201.28c-0.56-44.16-0.48-87.12,0-117.92c18.119-9.264,37.629-15.506,57.76-18.48v69.2c0,2.825,1.49,5.439,3.92,6.88
		l24.64,14.64c2.475,1.429,5.525,1.429,8,0l24.64-14.64c2.43-1.441,3.92-4.055,3.92-6.88V65.6c20.027,3.356,39.527,9.327,58,17.76
		v187.68c-0.926,16.987,4.588,33.699,15.44,46.8c12.423,12.724,29.673,19.561,47.44,18.8h3.76c26.64,0.48,44.88,0.88,57.76,2.48
		c-69.925,35.193-152.329,35.46-222.48,0.72c-1.068-0.524-2.251-0.771-3.44-0.72h-70.88c-1.92-22-7.28-75.12-8-137.84H37.524z
		 M113.604,369.28c-4.082-1.692-8.762,0.245-10.454,4.327c-0.481,1.161-0.682,2.42-0.586,3.673l0.72,21.2h-56V355.2h67.76
		c36.442,17.275,76.231,26.342,116.56,26.56c46.654,0.155,92.473-12.372,132.56-36.24c4.763,2.73,8.627,6.789,11.12,11.68
		c-19.6,16.16-107.12,76-261.2,11.76L113.604,369.28z"/>
	<circle style="fill:#281211;" cx="128.324" cy="109.36" r="8"/>
</g>
<g>
</g>
<g>
</g>
<g>
</g>
<g>
</g>
<g>
</g>
<g>
</g>
<g>
</g>
<g>
</g>
<g>
</g>
<g>
</g>
<g>
</g>
<g>
</g>
<g>
</g>
<g>
</g>
<g>
</g>
</svg>
