<?xml version="1.0" encoding="iso-8859-1"?>
<!-- Generator: Adobe Illustrator 19.0.0, SVG Export Plug-In . SVG Version: 6.00 Build 0)  -->
<svg version="1.1" id="Capa_1" xmlns="http://www.w3.org/2000/svg" xmlns:xlink="http://www.w3.org/1999/xlink" x="0px" y="0px"
	 viewBox="0 0 407.76 407.76" style="enable-background:new 0 0 407.76 407.76;" xml:space="preserve">
<path style="fill:#A5AE38;" d="M204.44,399.84c-29.054-0.044-52.596-23.586-52.64-52.64v-84.08H53.96
	c-22.502,0-40.756-18.218-40.8-40.72v-83.6c0-22.511,18.249-40.76,40.76-40.76s40.76,18.249,40.76,40.76v62.16h57.12V60.64
	C151.8,31.568,175.368,8,204.44,8s52.64,23.568,52.64,52.64v184.4h56v-62.08c0-22.511,18.249-40.76,40.76-40.76
	c22.511,0,40.76,18.249,40.76,40.76v83.52c0,22.533-18.267,40.8-40.8,40.8h-96.72v40C256.992,376.303,233.463,399.796,204.44,399.84
	L204.44,399.84z"/>
<path style="fill:#281211;" d="M353.8,134.16c-26.889,0.044-48.676,21.831-48.72,48.72v54.16h-40V60.64
	C265.08,27.149,237.931,0,204.44,0c-33.491,0-60.64,27.149-60.64,60.64v132.32h-41.12V138.8c0-26.929-21.831-48.76-48.76-48.76
	S5.16,111.871,5.16,138.8l0,0v83.52c0.044,26.92,21.88,48.72,48.8,48.72h89.84v76.08c0,33.491,27.149,60.64,60.64,60.64
	c33.491,0,60.64-27.149,60.64-60.64v-32h88.72c26.951,0,48.8-21.849,48.8-48.8v-83.36C402.6,156.009,380.751,134.16,353.8,134.16
	L353.8,134.16z M386.6,266.48c0,18.115-14.685,32.8-32.8,32.8h-96.72c-4.418,0-8,3.582-8,8v40c0,24.654-19.986,44.64-44.64,44.64
	s-44.64-19.986-44.64-44.64v-84.16c0-4.418-3.582-8-8-8H53.96c-18.084,0-32.756-14.636-32.8-32.72v-83.6
	c0-18.093,14.667-32.76,32.76-32.76s32.76,14.667,32.76,32.76v62.16c0,4.418,3.582,8,8,8h57.12c4.418,0,8-3.582,8-8V60.64
	c0-24.654,19.986-44.64,44.64-44.64s44.64,19.986,44.64,44.64v184.4c0,4.418,3.582,8,8,8h56c4.418,0,8-3.582,8-8v-62.08
	c0-18.093,14.667-32.76,32.76-32.76c18.093,0,32.76,14.667,32.76,32.76l0,0V266.48z"/>
<g>
</g>
<g>
</g>
<g>
</g>
<g>
</g>
<g>
</g>
<g>
</g>
<g>
</g>
<g>
</g>
<g>
</g>
<g>
</g>
<g>
</g>
<g>
</g>
<g>
</g>
<g>
</g>
<g>
</g>
</svg>
