<?xml version="1.0" encoding="iso-8859-1"?>
<!-- Generator: Adobe Illustrator 19.0.0, SVG Export Plug-In . SVG Version: 6.00 Build 0)  -->
<svg version="1.1" id="Layer_1" xmlns="http://www.w3.org/2000/svg" xmlns:xlink="http://www.w3.org/1999/xlink" x="0px" y="0px"
	 viewBox="0 0 512.001 512.001" style="enable-background:new 0 0 512.001 512.001;" xml:space="preserve">
<circle style="fill:#EFC84A;" cx="256.001" cy="256" r="256"/>
<path style="opacity:0.1;enable-background:new    ;" d="M504.655,316.884L298.881,111.147l-0.214-0.267l-0.533-0.534
	c-0.694-0.64-1.653-1.012-2.667-1.012h-78.933c-2.294,0-4.106,1.867-4.106,4.16c0,2.293,1.814,4.16,4.106,4.16v80.267
	c0,5.386-1.333,10.72-3.894,15.467l-82.24,150.72c-5.28,9.653-3.733,20.533,2.08,28.214l0.106,0.106
	c1.386,1.92,3.094,3.574,5.014,5.014l114.46,114.46c1.317,0.02,2.618,0.1,3.94,0.1C376.398,512,477.327,428.866,504.655,316.884z"/>
<path style="fill:#EBF0F3;" d="M381.618,364.09l-82.241-150.728c-2.582-4.731-3.934-10.035-3.934-15.425v-80.293l0,0
	c2.296,0,4.156-1.86,4.156-4.155s-1.86-4.155-4.156-4.155l0,0h-78.884l0,0c-2.296,0-4.156,1.86-4.156,4.155s1.86,4.155,4.156,4.155
	l0,0v80.293c0,5.39-1.353,10.694-3.934,15.425L130.383,364.09c-9.483,17.381,3.097,38.577,22.897,38.577h205.442
	C378.521,402.667,391.103,381.471,381.618,364.09z"/>
<ellipse style="fill:#FCD462;" cx="252.855" cy="287.802" rx="29.701" ry="29.723"/>
<ellipse style="fill:#F6C358;" cx="252.855" cy="287.802" rx="24.747" ry="24.763"/>
<path style="fill:#DC8744;" d="M251.837,307.072v-3.394c-4.246-0.433-8.057-2.123-11.43-5.067l3.392-4.045
	c2.601,2.263,5.278,3.609,8.039,4.045v-9.02c-3.501-0.836-6.065-1.937-7.691-3.301s-2.439-3.386-2.439-6.067s0.934-4.873,2.809-6.58
	c1.875-1.704,4.315-2.633,7.32-2.789v-2.325h2.972v2.371c3.406,0.25,6.628,1.411,9.665,3.489l-3.021,4.277
	c-2.046-1.456-4.257-2.355-6.644-2.698v8.741h0.14c3.561,0.839,6.178,1.97,7.85,3.394c1.675,1.426,2.51,3.496,2.51,6.207
	c0,2.713-0.96,4.923-2.881,6.625c-1.921,1.706-4.458,2.635-7.619,2.791v3.347h-2.972V307.072z M248.559,277.063
	c-0.791,0.696-1.183,1.565-1.183,2.603s0.31,1.859,0.93,2.464c0.617,0.605,1.796,1.186,3.531,1.744v-8.044
	C250.442,275.954,249.349,276.365,248.559,277.063z M258.341,297.449c0.866-0.711,1.301-1.61,1.301-2.696
	c0-1.084-0.341-1.945-1.021-2.58c-0.684-0.635-1.955-1.231-3.811-1.79v8.368C256.295,298.597,257.471,298.161,258.341,297.449z"/>
<path style="fill:#E56353;" d="M343.187,304.794H168.812l-33.748,61.852c-3.542,6.492-3.406,14.167,0.37,20.526
	c3.776,6.362,10.448,10.161,17.844,10.161H358.72c7.396,0,14.068-3.797,17.844-10.159c3.776-6.361,3.911-14.036,0.37-20.528
	L343.187,304.794z"/>
<circle style="fill:#27A2DB;" cx="204.209" cy="274.188" r="9.099"/>
<circle style="fill:#E56353;" cx="256.323" cy="206.688" r="9.846"/>
<circle style="fill:#FCD462;" cx="245.167" cy="141.99" r="7.696"/>
<circle style="fill:#44C4A1;" cx="292.782" cy="255.292" r="9.808"/>
<g>
</g>
<g>
</g>
<g>
</g>
<g>
</g>
<g>
</g>
<g>
</g>
<g>
</g>
<g>
</g>
<g>
</g>
<g>
</g>
<g>
</g>
<g>
</g>
<g>
</g>
<g>
</g>
<g>
</g>
</svg>
