<?xml version="1.0" encoding="iso-8859-1"?>
<!-- Generator: Adobe Illustrator 19.0.0, SVG Export Plug-In . SVG Version: 6.00 Build 0)  -->
<svg version="1.1" id="Capa_1" xmlns="http://www.w3.org/2000/svg" xmlns:xlink="http://www.w3.org/1999/xlink" x="0px" y="0px"
	 viewBox="0 0 420.253 420.253" style="enable-background:new 0 0 420.253 420.253;" xml:space="preserve">
<path style="fill:#C97943;" d="M67.012,307.649l21.153-21.16l45.376,45.36l-21.153,21.16L67.012,307.649z"/>
<path style="fill:#A5AE38;" d="M119.035,412.005h-5.2c-27.448-1.628-53.311-13.405-72.56-33.04
	c-41.12-40.96-44.32-104.96-7.28-142.32c10.964-9.703,24.542-15.963,39.04-18c12.947-2.115,25.251-7.119,36-14.64
	c7.001-6.218,12.476-13.965,16-22.64c3.61-8.06,8.53-15.467,14.56-21.92c15.801-15.859,37.293-24.732,59.68-24.64
	c11.643,0.001,23.162,2.397,33.84,7.04l11.28,4.16l-70.16,70.16h-3.2c-17.67,0.353-31.707,14.964-31.354,32.634
	c0.353,17.67,14.964,31.707,32.634,31.354c17.418-0.348,31.357-14.566,31.36-31.987v-3.28l69.92-69.92l4.64,11.04
	c14.262,31.89,7.32,69.276-17.44,93.92c-6.453,6.03-13.86,10.95-21.92,14.56c-8.706,3.51-16.481,8.986-22.72,16
	c-7.512,10.724-12.516,23-14.64,35.92c-1.926,14.697-8.193,28.485-18,39.6C166.357,402.936,143.138,412.298,119.035,412.005
	L119.035,412.005z M88.235,286.645l-21.04,21.04l45.36,45.36l21.2-21.2L88.235,286.645z"/>
<g>
	<path style="fill:#C97943;" d="M199.995,234.005c-2.867-6.192-7.824-11.177-14-14.08l-10-4.96l39.52-39.52l29.12,29.12
		l-39.36,39.36L199.995,234.005z"/>
	<path style="fill:#C97943;" d="M215.153,175.54l23.084-23.076l29.128,29.138l-23.084,23.076L215.153,175.54z"/>
	<path style="fill:#C97943;" d="M238.335,152.42l23.084-23.076l29.128,29.138l-23.084,23.076L238.335,152.42z"/>
	<path style="fill:#C97943;" d="M307.551,83.15l23.985-23.985l29.133,29.133l-23.985,23.985L307.551,83.15z"/>
	<path style="fill:#C97943;" d="M261.307,129.32l23.08-23.08l29.133,29.133l-23.08,23.08L261.307,129.32z"/>
	<path style="fill:#C97943;" d="M331.515,59.205l31.36-51.12l43.76,5.12l5.12,43.68l-51.12,31.44L331.515,59.205z"/>
	<path style="fill:#C97943;" d="M284.456,106.302l23.076-23.084l29.138,29.128l-23.076,23.084L284.456,106.302z"/>
</g>
<g>
	<path style="fill:#281211;" d="M407.595,5.205l-43.76-5.12c-3.18-0.467-6.331,1.013-8,3.76l-30.88,50.4l-23.28,23.28l-22.88,23.12
		l-23.04,23.04l-13.28,13.28c-35.887-18.501-79.626-11.605-108.08,17.04c-6.617,7.066-12.023,15.174-16,24
		c-3.13,7.661-7.974,14.503-14.16,20c-9.853,6.769-21.081,11.276-32.88,13.2c-15.939,2.364-30.827,9.377-42.8,20.16
		c-40,40-37.12,109.2,7.12,153.52c20.655,21.044,48.402,33.649,77.84,35.36h5.6c26.212,0.338,51.462-9.866,70.08-28.32
		c10.783-11.973,17.796-26.861,20.16-42.8c1.902-11.792,6.382-23.018,13.12-32.88c5.497-6.186,12.339-11.03,20-14.16
		c8.826-3.977,16.934-9.383,24-16c28.631-28.63,35.309-72.555,16.48-108.4l13.2-13.2l23.04-23.04l46.4-46.4l50.4-30.96
		c2.747-1.669,4.227-4.82,3.76-8l-5.12-43.76C414.247,8.595,411.32,5.635,407.595,5.205L407.595,5.205z M256.075,181.205
		l-11.76,11.76l-17.84-17.84l11.76-11.76L256.075,181.205z M189.275,212.405l25.92-25.92l17.84,17.84l-25.84,25.84
		c-1.84-3.775-4.27-7.232-7.2-10.24c-3.16-2.965-6.78-5.396-10.72-7.2V212.405z M188.635,265.205c-9.545,9.082-24.535,9.082-34.08,0
		c-9.334-9.411-9.272-24.607,0.139-33.941s24.607-9.272,33.941,0.139C197.915,240.76,197.915,255.849,188.635,265.205z
		 M255.115,274.005c-5.878,5.413-12.608,9.819-19.92,13.04c-9.767,4.263-18.398,10.757-25.2,18.96
		c-8.187,11.623-13.655,24.938-16,38.96c-1.768,13.072-7.331,25.338-16,35.28c-16.934,16.724-40.262,25.326-64,23.6
		c-25.461-1.538-49.441-12.488-67.28-30.72c-37.76-38-41.04-96.72-6.88-131.12c9.945-8.665,22.21-14.227,35.28-16
		c13.993-2.359,27.28-7.826,38.88-16c8.104-6.885,14.488-15.57,18.64-25.36c3.344-7.248,7.858-13.897,13.36-19.68
		c22.253-22.204,55.817-28.549,84.64-16l-21.04,21.04l-38.64,38.64c-22.088,0.398-39.671,18.626-39.274,40.714
		c0.398,22.088,18.626,39.671,40.714,39.274c21.805-0.393,39.277-18.179,39.28-39.987l38.32-38.64l20.96-20.96
		C283.715,217.92,277.423,251.669,255.115,274.005L255.115,274.005z M267.355,170.005l-17.36-17.6l11.76-11.76l17.76,17.84
		L267.355,170.005z M290.395,146.965l-17.76-17.84l11.76-11.76l17.76,17.84L290.395,146.965z M313.435,123.925l-17.68-17.92
		l11.76-11.76l17.84,17.84L313.435,123.925z M336.475,100.885l-17.68-17.68l12.72-12.72l8.88,8.88l8.88,8.88L336.475,100.885z
		 M361.995,78.245l-10.08-10.08l-10.32-10.16l25.44-41.44l32,3.76l3.76,32L361.995,78.245z"/>
	<path style="fill:#281211;" d="M93.835,280.885c-3.12-3.102-8.16-3.102-11.28,0l-21.2,21.12c-3.102,3.12-3.102,8.16,0,11.28
		l45.36,45.36c3.12,3.102,8.16,3.102,11.28,0l21.2-21.2c3.102-3.12,3.102-8.16,0-11.28L93.835,280.885z M112.395,341.765
		l-34.08-34.08l9.92-9.68l33.76,33.92L112.395,341.765z"/>
</g>
<g>
</g>
<g>
</g>
<g>
</g>
<g>
</g>
<g>
</g>
<g>
</g>
<g>
</g>
<g>
</g>
<g>
</g>
<g>
</g>
<g>
</g>
<g>
</g>
<g>
</g>
<g>
</g>
<g>
</g>
</svg>
