<?xml version="1.0" encoding="iso-8859-1"?>
<!-- Generator: Adobe Illustrator 19.0.0, SVG Export Plug-In . SVG Version: 6.00 Build 0)  -->
<svg version="1.1" id="Capa_1" xmlns="http://www.w3.org/2000/svg" xmlns:xlink="http://www.w3.org/1999/xlink" x="0px" y="0px"
	 viewBox="0 0 458.059 458.059" style="enable-background:new 0 0 458.059 458.059;" xml:space="preserve">
<path style="fill:#C97943;" d="M232.549,204.309c-39.24-0.041-78.153-7.141-114.88-20.96l-6.08-2.4l1.04-6.4
	c2.72-16.4,10.24-61.28,14.72-86.72c3.76-21.52,8.88-36.72,40-36.72c20.874,0.913,41.572,4.242,61.68,9.92
	c20.004-5.654,40.593-8.982,61.36-9.92c31.44,0,36.56,15.2,40,36.72c4.48,25.44,12,70.32,14.72,86.72l1.04,6.24l-5.84,2.4
	c-34.26,14.06-70.968,21.184-108,20.96L232.549,204.309z M256.549,174.549l-5.28-30.64l22.24-21.68l-30.72-4.48l-13.76-27.92
	l-13.36,27.44l-30.72,4.48l22.24,21.68l-5.28,30.64l27.12-14L256.549,174.549z"/>
<path style="fill:#FAC000;" d="M229.029,160.069l-27.52,14.48l5.28-30.64l-22.24-21.76l30.72-4.4l13.76-27.92l13.76,27.92l30.72,4.4
	l-22.24,21.76l5.28,30.64L229.029,160.069z"/>
<path style="fill:#C97943;" d="M229.029,263.589c-39.365-0.686-78.397-7.349-115.76-19.76h-0.56h-0.48
	c-48-15.44-87.04-36.32-99.28-48l-10.32-10.32l13.84-3.6c13.383-2.593,27.016-3.667,40.64-3.2c23.6,0,48,1.68,53.12,2.08h1.36
	l1.28,0.56c37.779,15.596,78.248,23.641,119.12,23.68c38.965-0.053,77.49-8.227,113.12-24l1.28-0.56h1.36
	c4.72,0,29.68-2.08,53.28-2.08c13.624-0.463,27.256,0.611,40.64,3.2l13.84,3.6l-10.48,10.16c-12.24,11.76-51.12,32.56-99.12,48h-0.8
	C307.67,255.958,268.527,262.783,229.029,263.589L229.029,263.589z"/>
<g>
	<path style="fill:#281211;" d="M400.949,170.709c-18.56,0-37.68,1.04-48,1.68c-2.88-17.12-10.24-60.88-14.56-85.84
		c-4-22.8-10.64-43.28-48-43.28c-20.759,0.899-41.347,4.174-61.36,9.76c-20.017-5.559-40.604-8.807-61.36-9.68
		c-37.52,0-44.16,20.48-48,43.28c-4.4,24.96-11.68,68.72-14.56,85.84c-10.16-0.64-29.28-1.68-48-1.68
		c-44.08-0.08-52.08,5.6-55.28,10.96c-2.151,3.331-2.423,7.539-0.72,11.12c5.84,12.96,48.56,37.76,103.12,56v53.92
		c0,61.76,56,112,124.8,112s124.8-50.24,124.8-112v-53.84c54.56-18.32,97.28-43.12,103.12-56c1.703-3.581,1.431-7.789-0.72-11.12
		C453.029,176.389,445.029,170.709,400.949,170.709L400.949,170.709z M135.269,89.269c3.44-19.76,6.48-30.08,32.4-30.08
		c20.125,0.995,40.068,4.296,59.44,9.84c1.261,0.312,2.579,0.312,3.84,0c19.378-5.49,39.322-8.737,59.44-9.68
		c25.92,0,28.96,10.32,32.4,30.08c4.48,25.44,12,70.24,14.72,86.64c-98.32,40.88-193.28,9.2-216.96,0
		C123.349,159.509,130.869,114.709,135.269,89.269L135.269,89.269z M229.029,398.869c-60,0-108.8-43.04-108.8-96v-48.88
		c35.25,10.991,71.883,16.917,108.8,17.6c36.89-0.69,73.496-6.616,108.72-17.6v48.88
		C337.829,355.749,289.029,398.869,229.029,398.869z M343.589,235.829h-1.2c-36.568,12.288-74.791,18.951-113.36,19.76
		c-38.553-0.706-76.775-7.26-113.36-19.44h-1.2c-48-15.44-85.28-35.84-96-46.16c12.725-2.456,25.692-3.423,38.64-2.88
		c22.8,0,46.72,1.6,52.56,2c38.818,15.899,80.372,24.052,122.32,24c40.018,0.148,79.629-8.025,116.32-24
		c5.6-0.4,29.6-2.08,52.64-2.08c12.948-0.54,25.915,0.426,38.64,2.88C429.029,199.989,391.349,220.389,343.589,235.829
		L343.589,235.829z"/>
	<path style="fill:#281211;" d="M256.549,182.549c4.418,0.064,8.051-3.465,8.116-7.883c0.007-0.495-0.032-0.99-0.116-1.477
		l-4.56-26.48l19.28-18.8c3.183-3.064,3.279-8.129,0.214-11.312c-1.232-1.28-2.856-2.113-4.614-2.368l-26.56-3.84l-11.92-24
		c-1.971-3.954-6.774-5.562-10.729-3.591c-1.555,0.775-2.816,2.036-3.591,3.591l-11.92,24l-26.56,3.84
		c-4.372,0.634-7.403,4.693-6.768,9.066c0.255,1.758,1.088,3.382,2.368,4.614l19.28,18.8l-4.8,26.32
		c-0.748,4.355,2.176,8.491,6.53,9.239c1.641,0.282,3.33,0.045,4.83-0.679l24-12.48l24,12.48
		C254.113,182.176,255.318,182.505,256.549,182.549z M232.549,153.029c-2.329-1.223-5.111-1.223-7.44,0l-13.2,6.96l2.48-14.64
		c0.426-2.585-0.441-5.215-2.32-7.04l-10.64-10.4l14.72-2.16c2.602-0.391,4.845-2.036,6-4.4l6.88-13.44l6.56,13.36
		c1.155,2.364,3.398,4.009,6,4.4l14.72,2.16l-10.64,10.4c-1.879,1.825-2.746,4.455-2.32,7.04l2.48,14.64L232.549,153.029z"/>
</g>
<g>
</g>
<g>
</g>
<g>
</g>
<g>
</g>
<g>
</g>
<g>
</g>
<g>
</g>
<g>
</g>
<g>
</g>
<g>
</g>
<g>
</g>
<g>
</g>
<g>
</g>
<g>
</g>
<g>
</g>
</svg>
