<svg height="512pt" viewBox="0 0 512 512" width="512pt" xmlns="http://www.w3.org/2000/svg"><path d="m512 256c0 141.386719-114.613281 256-256 256s-256-114.613281-256-256 114.613281-256 256-256 256 114.613281 256 256zm0 0" fill="#68fcdf"/><path d="m512 256c0 141.378906-114.621094 256-256 256s-256-114.621094-256-256c0-46.21875 12.25-89.570312 33.679688-127 44.121093 77.070312 127.160156 129 222.320312 129s178.210938-51.929688 222.320312-129c21.429688 37.429688 33.679688 80.78125 33.679688 127zm0 0" fill="#10e2c4"/><path d="m481.261719 377.699219v.011719c-43.292969 79.96875-127.941407 134.289062-225.261719 134.289062s-181.96875-54.320312-225.261719-134.289062v-.011719zm0 0" fill="#1aba9f"/><path d="m475.785156 225.0625c0 84.707031-68.667968 153.375-153.375 153.375-84.707031 0-153.375-68.667969-153.375-153.375s68.667969-153.375 153.375-153.375c84.707032 0 153.375 68.667969 153.375 153.375zm0 0" fill="#fff"/><path d="m322.410156 378.441406c28.671875 0 55.496094-7.875 78.453125-21.570312-.070312-.140625-.132812-.28125-.203125-.425782-.089844-.179687-.15625-.355468-.242187-.53125-.355469-.730468-.730469-1.4375-1.109375-2.171874-.066406-.132813-.152344-.285157-.21875-.441407-.398438-.730469-.820313-1.460937-1.238282-2.191406-.066406-.109375-.132812-.222656-.199218-.351563-.421875-.730468-.886719-1.484374-1.351563-2.214843-.042969-.089844-.109375-.175781-.15625-.265625-.484375-.753906-.972656-1.503906-1.480469-2.234375-.046874-.066407-.089843-.132813-.132812-.199219-.53125-.753906-1.0625-1.484375-1.617188-2.234375-.023437-.046875-.042968-.089844-.089843-.113281-.550781-.773438-1.128907-1.503906-1.722657-2.234375-.023437-.023438-.023437-.042969-.046874-.089844-.617188-.730469-1.238282-1.480469-1.859376-2.210937h-.019531c-8.300781-9.582032-18.945312-17.175782-31.292969-21.886719-.21875-.089844-.464843-.199219-.683593-.289063l-3.652344-1.347656h-62.273437l-3.652344 1.347656c-.21875.089844-.464844.199219-.683594.289063-6.175781 2.347656-11.929688 5.445312-17.171875 9.117187-5.246094 3.671875-9.984375 7.964844-14.121094 12.769532-.023437 0-.023437 0-.023437 0-.617188.730468-1.238282 1.480468-1.855469 2.234374-.023437.023438-.023437.023438-.046875.042969-.597656.753907-1.171875 1.484375-1.726562 2.234375-.042969.046875-.0625.089844-.109376.132813-.53125.753906-1.082031 1.484375-1.59375 2.238281-.042968.0625-.089843.132812-.132812.195312-.507812.730469-.996094 1.484376-1.480469 2.238282-.046875.085937-.113281.175781-.15625.265625-.464843.730469-.929687 1.480469-1.351562 2.210937-.066407.113282-.132813.222656-.199219.332032-.417969.730468-.839844 1.484374-1.238281 2.214843-.066407.152344-.132813.289063-.21875.441407-.378907.707031-.753907 1.4375-1.109375 2.167968-.089844.179688-.15625.355469-.242188.511719-.070312.148437-.140625.296875-.210937.445313 22.957031 13.695312 49.785156 21.574218 78.460937 21.574218zm0 0" fill="#d0f6ff"/><path d="m400.660156 356.445312c-.089844-.179687-.152344-.355468-.242187-.53125-.355469-.730468-.730469-1.4375-1.105469-2.171874-.066406-.132813-.15625-.285157-.222656-.441407-.398438-.730469-.820313-1.460937-1.238282-2.191406-.066406-.109375-.132812-.222656-.199218-.351563-.421875-.730468-.886719-1.484374-1.351563-2.214843-.042969-.089844-.109375-.175781-.152343-.265625-.488282-.753906-.976563-1.503906-1.484376-2.234375-.042968-.066407-.089843-.132813-.132812-.199219-.53125-.753906-1.0625-1.484375-1.617188-2.234375-.019531-.046875-.042968-.089844-.085937-.113281-.554687-.773438-1.128906-1.503906-1.726563-2.234375-.023437-.023438-.023437-.042969-.042968-.089844-.621094-.730469-1.242188-1.480469-1.859375-2.210937h-.023438c-8.296875-9.582032-18.941406-17.175782-31.289062-21.886719-.222657-.089844-.464844-.199219-.6875-.289063l-3.652344-1.347656h-31.136719v63c28.671875 0 55.496094-7.875 78.453125-21.566406-.070312-.140625-.128906-.28125-.203125-.425782zm0 0" fill="#8fc9f7"/><path d="m291.273438 315.4375 10.648437 30.792969 20.488281-16.039063v-19.3125l-23.046875-4.664062zm0 0" fill="#fff"/><path d="m353.546875 315.4375-10.648437 30.792969-20.488282-16.039063v-19.3125l22.9375-4.945312zm0 0" fill="#d0f6ff"/><path d="m322.410156 330.191406c-12.730468 0-23.046875-10.320312-23.046875-23.046875v-48.277343h46.09375v48.277343c0 12.726563-10.316406 23.046875-23.046875 23.046875zm0 0" fill="#e3835a"/><path d="m255.070312 224.703125c-9.148437 0-16.566406 7.417969-16.566406 16.566406 0 12.738281 10.324219 23.0625 23.0625 23.0625h10.449219v-39.269531s-15.90625-.359375-16.945313-.359375zm0 0" fill="#ffa87a"/><path d="m389.75 224.703125c9.148438 0 16.566406 7.417969 16.566406 16.566406 0 12.738281-10.324218 23.0625-23.0625 23.0625h-10.449218v-39.269531s15.90625-.359375 16.945312-.359375zm0 0" fill="#cc5a28"/><path d="m384.683594 231.167969c0 17.503906-4.207032 34.011719-11.664063 48.597656-9.734375 19.007813-29.296875 30.980469-50.609375 31.113281h-.375c-21.488281 0-41.207031-11.996094-50.988281-31.113281-7.480469-14.585937-11.683594-31.09375-11.683594-48.597656 0-4.382813.265625-8.675781.773438-12.925781.15625-1.390626.355469-2.785157.574219-4.15625 5.621093-34.878907 33.703124-52.25 61.699218-52.074219 3.695313.023437 7.367188.355469 11.019532.996093 8.71875 1.507813 17.152343 4.757813 24.519531 9.78125 12.683593 8.589844 22.351562 22.375 25.386719 41.296876.683593 4.335937 1.148437 8.761718 1.28125 13.277343.066406 1.257813.066406 2.519531.066406 3.804688zm0 0" fill="#ffa87a"/><path d="m384.683594 231.167969c0 17.503906-4.207032 34.011719-11.664063 48.597656-9.734375 19.007813-29.296875 30.980469-50.609375 31.113281v-148.867187c3.695313.023437 7.367188.355469 11.019532.996093 8.71875 1.503907 17.152343 4.757813 24.519531 9.78125 12.683593 8.585938 22.351562 22.371094 25.386719 41.292969.683593 4.339844 1.148437 8.765625 1.28125 13.277344.066406 1.261719.066406 2.523437.066406 3.808594zm0 0" fill="#ea824e"/><path d="m361.714844 159.578125c-4.339844 29.078125-17.707032 50.234375-39.304688 62.117187-9.425781 5.222657-20.425781 8.652344-32.929687 10.203126-11.21875 1.394531-23.542969.023437-33.835938-4.46875-3.25-1.417969-5.199219-4.824219-4.84375-8.34375 0-.023438.019531-.046876.019531-.066407 5.246094-48.796875 38.441407-73.382812 71.589844-72.941406 3.519532.023437 7.058594.355469 10.535156.976563 10.15625 1.746093 20.027344 5.90625 28.769532 12.523437zm0 0" fill="#474f6f"/><g fill="#323b5a"><path d="m361.714844 159.578125c-4.339844 29.078125-17.707032 50.234375-39.304688 62.117187v-75.617187c3.519532.023437 7.058594.355469 10.535156.976563 10.15625 1.746093 20.027344 5.90625 28.769532 12.523437zm0 0"/><path d="m385.167969 229.78125c-45.632813-.234375-59.71875-39.601562-52.21875-82.734375 27.566406 4.78125 52.988281 27.28125 59.722656 67.925781.371094 2.242188.621094 3.976563.808594 5.605469.570312 4.9375-3.339844 9.230469-8.3125 9.203125zm0 0"/><path d="m162.21875 315.691406-63.378906 142.398438c-2.917969-2.269532-5.78125-4.601563-8.589844-7-.101562-.078125-.191406-.160156-.289062-.238282-2.75-2.339843-5.449219-4.75-8.101563-7.203124l60.851563-136.699219 9.75 4.371093zm0 0"/></g><path d="m162.21875 315.691406-63.378906 142.398438c-2.917969-2.269532-5.78125-4.601563-8.589844-7l62.210938-139.769532zm0 0" fill="#20273a"/><path d="m273.953125 288.179688c-22.4375 50.09375-81.511719 72.472656-132.375 50.378906-.367187-.152344-.734375-.316406-1.101563-.480469-51.109374-22.898437-74.222656-82.367187-51.621093-132.820313 22.605469-50.453124 82.367187-72.796874 133.480469-49.898437.363281.164063.730468.328125 1.089843.5 50.347657 23.25 72.96875 82.230469 50.527344 132.320313zm0 0" fill="#474f6f"/><path d="m273.953125 288.179688c-22.4375 50.09375-81.511719 72.472656-132.375 50.378906-32.9375-30.125-44.648437-78.671875-25.613281-121.15625 19.03125-42.484375 63.050781-66.066406 107.460937-61.542969 50.347657 23.25 72.96875 82.230469 50.527344 132.320313zm0 0" fill="#323b5a"/><path d="m273.953125 288.179688c-22.601563 50.453124-82.363281 72.796874-133.476563 49.898437l81.855469-182.71875c51.113281 22.898437 74.226563 82.367187 51.621094 132.820313zm0 0" fill="#20273a"/><path d="m210.332031 182.109375c-36.140625-16.1875-78.394531-.390625-94.378906 35.285156-15.980469 35.679688.363281 77.726563 36.503906 93.914063 36.144531 16.191406 78.398438.394531 94.378907-35.285156 15.984374-35.675782-.359376-77.722657-36.503907-93.914063zm0 0" fill="#d0f6ff"/><path d="m246.847656 276.035156c-15.984375 35.679688-58.238281 51.476563-94.382812 35.28125l57.878906-129.199218c36.144531 16.195312 52.484375 58.238281 36.503906 93.917968zm0 0" fill="#8fc9f7"/><path d="m199.964844 205.257812c-23.191406-10.386718-50.304688-.25-60.558594 22.640626-10.257812 22.894531.230469 49.875 23.421875 60.261718 23.191406 10.390625 50.304687.253906 60.558594-22.640625 10.253906-22.890625-.230469-49.871093-23.421875-60.261719zm0 0" fill="#fff"/><path d="m223.398438 265.53125c-10.257813 22.894531-37.371094 33.027344-60.5625 22.636719l37.140624-82.902344c23.191407 10.390625 33.675782 37.371094 23.421876 60.265625zm0 0" fill="#d0f6ff"/><path d="m150.859375 369.128906-42.890625 95.75c-6.21875-4.410156-12.230469-9.089844-18.007812-14.027344-5.949219-5.070312-11.671876-10.421874-17.132813-16l37.5625-83.839843 20.230469 9.058593zm0 0" fill="#ffd112"/><path d="m150.859375 369.128906-42.890625 95.75c-6.21875-4.410156-12.230469-9.089844-18.007812-14.027344l40.660156-90.78125zm0 0" fill="#ff9f00"/></svg>