<?xml version="1.0" encoding="iso-8859-1"?>
<!-- Generator: Adobe Illustrator 19.0.0, SVG Export Plug-In . SVG Version: 6.00 Build 0)  -->
<svg version="1.1" id="Capa_1" xmlns="http://www.w3.org/2000/svg" xmlns:xlink="http://www.w3.org/1999/xlink" x="0px" y="0px"
	 viewBox="0 0 512 512" style="enable-background:new 0 0 512 512;" xml:space="preserve">
<circle style="fill:#FF9451;" cx="256" cy="256" r="256"/>
<path style="fill:#F7674F;" d="M284.606,510.4c120.83-13.437,216.267-110.96,226.473-232.737l-197.7-197.7L144.643,223.762
	l6.689,115.858l98.619,98.165l-19.078,18.882L284.606,510.4z"/>
<path style="fill:#1A1A1A;" d="M293.872,369.064h-75.744c-49.973,0-90.628-40.656-90.628-90.628V188.26h257v90.175
	C384.5,328.408,343.845,369.064,293.872,369.064z M160.5,221.26v57.175c0,31.776,25.852,57.628,57.628,57.628h75.744
	c31.776,0,57.628-25.852,57.628-57.628V221.26H160.5z"/>
<path d="M255.952,188.26v33H351.5v57.175c0,31.776-25.852,57.628-57.628,57.628h-37.92v33h37.92
	c49.973,0,90.628-40.656,90.628-90.628V188.26H255.952z"/>
<path style="fill:#333333;" d="M256,325.606L256,325.606c-43.716,0-79.154-35.438-79.154-79.154V134.487
	c0-43.715,35.438-79.154,79.154-79.154l0,0c43.715,0,79.154,35.438,79.154,79.154v111.965
	C335.154,290.168,299.715,325.606,256,325.606z"/>
<g>
	<path style="fill:#1A1A1A;" d="M256,55.333L256,55.333c-0.016,0-0.032,0.001-0.048,0.001v270.271c0.016,0,0.032,0.001,0.048,0.001
		l0,0c43.716,0,79.154-35.438,79.154-79.154V134.487C335.154,90.772,299.716,55.333,256,55.333z"/>
	<rect x="230.87" y="352.56" style="fill:#1A1A1A;" width="50.26" height="104.1"/>
</g>
<rect x="255.95" y="352.56" width="25.18" height="104.1"/>
<g>
</g>
<g>
</g>
<g>
</g>
<g>
</g>
<g>
</g>
<g>
</g>
<g>
</g>
<g>
</g>
<g>
</g>
<g>
</g>
<g>
</g>
<g>
</g>
<g>
</g>
<g>
</g>
<g>
</g>
</svg>
