<?xml version="1.0" encoding="iso-8859-1"?>
<!-- Generator: Adobe Illustrator 16.0.0, SVG Export Plug-In . SVG Version: 6.00 Build 0)  -->
<!DOCTYPE svg PUBLIC "-//W3C//DTD SVG 1.1//EN" "http://www.w3.org/Graphics/SVG/1.1/DTD/svg11.dtd">
<svg version="1.1" id="Capa_1" xmlns="http://www.w3.org/2000/svg" xmlns:xlink="http://www.w3.org/1999/xlink" x="0px" y="0px"
	 width="582.448px" height="582.448px" viewBox="0 0 582.448 582.448" style="enable-background:new 0 0 582.448 582.448;"
	 xml:space="preserve">
<g>
	<path d="M558.104,318.255c-7.229-3.423-16.916-9.926-22.021-21.429c-9.027-20.311-27.541-49.974-83.844-73
		c-13.062-5.345-28.832-8.052-46.857-8.052c-17.088,0-34.959,2.505-51.742,6.292l-36.758-12.604l-6.904-43.471
		c-0.584-3.624-2.189-6.809-4.438-9.4l0.201-2.362c-1.1-5.164-6.273-9.142-11.541-8.884l-53.226,2.639
		c-0.631,0.029-1.205,0.296-1.817,0.45l-34.645-18.265L181.84,88.698L227.3,45.6c9.046-8.587,13.512-24.556,9.926-35.697
		c-3.557-11.121-13.78-13.196-22.845-4.59l-19.144,18.149l-28.353-4.724c-12.297-2.046-21.152,6.34-19.766,18.743l3.213,28.553
		l-15.883,15.061c-9.065,8.587-9.151,20.426-0.22,26.469c2.601,1.75,5.689,2.735,8.96,3.155l25.522,46.675
		c2.104,3.834,5.278,6.952,9.142,8.999l48.319,25.474c0.545,0.287,1.109,0.402,1.664,0.631l-6.799,83.289
		c-11.111,3.079-24.662,6.685-41.97,11.207c-34.406,8.989-53.32,22.195-63.792,34.482c-11.255-0.803-54.745-2.17-80.239,20.761
		c-12.25,11.025-18.465,25.981-18.456,44.427c0.019,60.139,2.266,88.492,16.161,108.392c0.803,1.138,2.056,1.874,3.433,2.018
		c0.163,0.019,0.325,0.028,0.488,0.028c1.214,0,2.391-0.469,3.29-1.31c0.459-0.44,45.776-44.208,24.098-100.444
		c-2.687-6.962-2.592-12.24,0.277-16.151c6.713-9.151,27.358-9.964,34.76-9.457c1.243,0.104,2.4-0.325,3.318-1.081l-0.995,82.219
		c-33.363,31.47-38.059,80.851-37.858,107.74c0.105,12.833,11.475,23.667,25.044,23.667l6.875-0.057
		c5.795-0.058,10.203-1.789,13.11-5.164c3.328-3.863,4.399-9.553,3.28-17.375c-0.88-6.13-1.176-13.827-0.899-22.902
		c0.698-22.845,11.542-40.268,19.383-49.046c-8.482,19.105-1.827,50.098,5.518,73.344c3.72,11.781,17.212,21.363,30.074,21.363
		h2.391c8.224,0,12.116-3.404,13.923-6.244c1.922-3.032,3.395-8.406-0.564-16.782c-12.957-27.521-14.87-66.087,11.6-85.737
		c31.671-23.495,37.236-58.963,38.192-71.987l36.558,0.995l-5.68,23.218c-3.749,15.376,4.81,30.571,19.134,33.908
		c14.325,3.338,28.85-6.483,32.426-21.907l7.975-34.416c22.711-1.587,36.883-7.783,42.209-10.557
		c2.631,1.387,7.393,4.494,9.555,9.725c1.988,4.801,1.424,10.576-1.684,17.203c-5.871,12.527-19.088,20.234-29.156,24.499
		c-10.471,4.466-21.248,15.846-21.592,28.937c-0.172,6.272,2.189,12.384,6.463,16.772c4.668,4.801,11.018,6.971,17.691,5.853
		c35.496-6.149,57.834-32.838,70.322-54.144c14.535-24.767,9.189-67.616-10.041-80.449c-2.055-1.377-2.553-2.763-1.826-5.135
		c3.127-10.337,25.17-25.14,37.428-25.14c4.074,0,7.039,1.415,9.066,4.332c5.469,7.87,4.055,25.168-3.787,46.254
		c-7.039,18.924-3.434,30.217,0.832,36.356c7.305,10.49,23.055,13.158,36.863,6.234c21.457-10.729,68.209-71.288,70.371-74.128
		l9.035-13.56c2.094-3.137,2.736-6.694,1.816-10.013C564.503,323.008,561.882,320.072,558.104,318.255z M101.438,360.637l1.1-2.353
		l-0.038,3.117C102.166,361.114,101.84,360.818,101.438,360.637z"/>
	<circle cx="268.706" cy="81.067" r="44.208"/>
</g>
<g>
</g>
<g>
</g>
<g>
</g>
<g>
</g>
<g>
</g>
<g>
</g>
<g>
</g>
<g>
</g>
<g>
</g>
<g>
</g>
<g>
</g>
<g>
</g>
<g>
</g>
<g>
</g>
<g>
</g>
</svg>
