<?xml version="1.0" encoding="utf-8"?>
<!-- Generator: Adobe Illustrator 18.1.1, SVG Export Plug-In . SVG Version: 6.00 Build 0)  -->
<!DOCTYPE svg PUBLIC "-//W3C//DTD SVG 1.1//EN" "http://www.w3.org/Graphics/SVG/1.1/DTD/svg11.dtd">
<svg version="1.1" id="Layer_1" xmlns="http://www.w3.org/2000/svg" xmlns:xlink="http://www.w3.org/1999/xlink" x="0px" y="0px"
	 viewBox="0 0 195.8 500" enable-background="new 0 0 195.8 500" xml:space="preserve">
<g id="Change2_1_">
	<polygon id="Change2" fill="#D2D3D4" points="195.8,364.4 180.4,500 16.5,500 0,364.4 	"/>
</g>
<g id="Change1">
	<path fill="#2DB674" d="M174.5,189.9v127.4c0,10.6-8.3,18.9-18.9,18.9h-38.9v28.3H79v-57.8H40.1c-10.6,0-18.9-8.3-18.9-18.9V119.1
		c0-10.6,8.3-18.9,18.9-18.9c10.6,0,18.9,8.3,18.9,23.6v147.4h20V18.9C79,8.3,87.3,0,97.9,0c10.6,0,18.9,8.3,18.9,18.9v280.7H138
		V189.9c0-10.6,8.3-18.9,18.9-18.9C166.3,171,174.5,179.2,174.5,189.9z"/>
</g>
<g id="Layer_x">
	<path id="x_2_" opacity="0.2" fill="#010101" enable-background="new    " d="M97.9,0v364.4H79v-57.8H40.1
		c-10.6,0-18.9-8.3-18.9-18.9V119.1c0-10.6,8.3-18.9,18.9-18.9c10.6,0,18.9,8.3,18.9,23.6v147.4h20V18.9C79,8.3,87.3,0,97.9,0z"/>
	<polygon id="x_1_" opacity="0.2" fill="#010101" enable-background="new    " points="97.9,364.4 97.9,500 16.5,500 0,364.4 	"/>
</g>
</svg>
