<?xml version="1.0" encoding="iso-8859-1"?>
<!-- Generator: Adobe Illustrator 19.0.0, SVG Export Plug-In . SVG Version: 6.00 Build 0)  -->
<svg version="1.1" id="Capa_1" xmlns="http://www.w3.org/2000/svg" xmlns:xlink="http://www.w3.org/1999/xlink" x="0px" y="0px"
	 viewBox="0 0 428.4 428.4" style="enable-background:new 0 0 428.4 428.4;" xml:space="preserve">
<path style="fill:#FAC000;" d="M328.595,411.71c-12.883-0.044-23.316-10.477-23.36-23.36c0.012-3.586,0.861-7.12,2.48-10.32
	l-93.44-49.12l-92.32,48.48c1.817,3.34,2.779,7.078,2.8,10.88c0,12.901-10.459,23.36-23.36,23.36s-23.36-10.459-23.36-23.36
	s10.459-23.36,23.36-23.36c1.278-0.108,2.562-0.108,3.84,0l17.6-102.8l-74.8-72.88c-9.191,9.054-23.981,8.943-33.035-0.247
	c-9.054-9.191-8.943-23.981,0.247-33.035c4.31-4.246,10.098-6.654,16.148-6.717c11.767,0.206,21.556,9.106,22.88,20.8l103.28-15.04
	l46.48-94.16c-11.416-6.009-15.8-20.136-9.79-31.552c6.009-11.416,20.136-15.8,31.552-9.79c7.608,4.005,12.401,11.865,12.478,20.462
	c-0.034,9.085-5.297,17.337-13.52,21.2l46.32,93.92l103.2,14.88c1.717-12.742,13.438-21.68,26.18-19.963
	c12.742,1.717,21.68,13.438,19.963,26.18s-13.438,21.68-26.18,19.963c-5.079-0.684-9.79-3.025-13.403-6.66l-75.12,72.64
	l17.68,103.04c12.592-2.807,25.076,5.125,27.883,17.717s-5.125,25.076-17.717,27.883c-1.631,0.363-3.295,0.551-4.966,0.559
	L328.595,411.71z M258.915,295.07l-8.56-49.76l35.92-35.12l-49.92-7.28l-22.08-45.2l-21.92,44.8l-50.08,7.68l36.08,35.2l-8.56,49.68
	l44.48-23.52L258.915,295.07z"/>
<path style="fill:#FFFFFF;" d="M214.275,271.55l-44.64,23.52l8.56-49.76l-36.16-35.2l49.92-7.2l22.32-45.2l22.32,45.2l49.92,7.2
	l-36.16,35.28l8.56,49.68L214.275,271.55z"/>
<g>
	<path style="fill:#281211;" d="M397.075,141.55c-12.719,0.032-24.158,7.743-28.96,19.52l-92-13.36l-41.36-83.76
		c13.267-11.134,14.995-30.915,3.861-44.181s-30.915-14.995-44.181-3.861c-7.105,5.963-11.206,14.766-11.2,24.043
		c-0.137,9.206,3.819,17.998,10.8,24l-41.6,83.76l-92.16,13.36c-6.716-15.965-25.102-23.462-41.066-16.746
		S-4.254,169.425,2.462,185.39c4.898,11.643,16.302,19.211,28.933,19.2c5.633,0.009,11.163-1.512,16-4.4l66.8,65.12l-16,91.76
		c-17.246,1.591-29.938,16.861-28.347,34.108s16.861,29.938,34.108,28.347c16.115-1.486,28.453-14.991,28.48-31.175
		c-0.013-2.373-0.309-4.737-0.88-7.04l82.72-43.44l83.6,44.24c-0.468,2.102-0.709,4.247-0.72,6.4
		c0.02,17.32,14.077,31.343,31.397,31.323c17.32-0.02,31.343-14.077,31.323-31.397c-0.02-16.714-13.145-30.476-29.84-31.286
		l-16-91.68l66.88-65.2c14.934,8.859,34.222,3.935,43.081-10.999s3.935-34.222-10.999-43.081c-4.867-2.887-10.423-4.407-16.082-4.4
		L397.075,141.55z M397.075,188.35c-4.079,0.019-7.997-1.594-10.88-4.48c-3.12-3.102-8.16-3.102-11.28,0l-74.88,72.96
		c-1.905,1.843-2.774,4.509-2.32,7.12l17.68,103.04c0.728,4.358,4.85,7.301,9.208,6.573c0.158-0.026,0.316-0.058,0.472-0.093
		c8.278-1.856,16.492,3.35,18.348,11.628c1.856,8.278-3.35,16.492-11.628,18.348c-8.278,1.856-16.492-3.35-18.348-11.628
		c-0.249-1.112-0.374-2.248-0.372-3.388c0.023-2.367,0.598-4.695,1.68-6.8c1.934-3.892,0.407-8.617-3.44-10.64l-93.28-49.2
		c-2.329-1.223-5.111-1.223-7.44,0l-92.32,48.56c-3.909,2.055-5.413,6.89-3.36,10.8c1.19,2.186,1.822,4.631,1.84,7.12
		c0,8.483-6.877,15.36-15.36,15.36s-15.36-6.877-15.36-15.36s6.877-15.36,15.36-15.36h0c0.825-0.069,1.655-0.069,2.48,0
		c4.351,0.767,8.5-2.138,9.268-6.489c0.004-0.024,0.008-0.047,0.012-0.071l17.68-102.8c0.454-2.611-0.415-5.277-2.32-7.12
		l-74.8-72.88c-3.12-3.102-8.16-3.102-11.28,0c-5.719,6.325-15.482,6.817-21.808,1.098s-6.817-15.482-1.098-21.808
		c5.719-6.325,15.482-6.817,21.808-1.098c2.691,2.433,4.439,5.735,4.938,9.328c0.619,4.374,4.666,7.418,9.04,6.8l103.6-14.96
		c2.602-0.391,4.845-2.036,6-4.4l46.48-94.16c1.964-3.955,0.353-8.752-3.6-10.72c-7.517-3.932-10.422-13.214-6.49-20.73
		c3.932-7.517,13.214-10.422,20.73-6.49c5.043,2.638,8.214,7.849,8.24,13.54c0.015,6.127-3.595,11.684-9.2,14.16
		c-3.998,1.88-5.716,6.645-3.836,10.644c0.025,0.052,0.05,0.104,0.076,0.156l46.32,93.92c1.155,2.364,3.398,4.009,6,4.4l103.2,15.04
		c4.344,0.807,8.52-2.06,9.327-6.404c0.054-0.29,0.092-0.582,0.113-0.876c1.105-8.411,8.819-14.334,17.23-13.229
		c8.411,1.105,14.334,8.819,13.229,17.23c-1.009,7.685-7.587,13.414-15.338,13.359L397.075,188.35z"/>
	<path style="fill:#281211;" d="M287.635,202.27l-45.76-6.64l-20.4-41.52c-1.971-3.954-6.774-5.562-10.729-3.591
		c-1.555,0.775-2.816,2.036-3.591,3.591l-20.48,41.44l-45.76,6.64c-4.372,0.634-7.403,4.693-6.768,9.066
		c0.255,1.758,1.088,3.382,2.368,4.614l33.12,32l-8,45.52c-0.976,4.309,1.726,8.594,6.035,9.57c1.948,0.441,3.99,0.138,5.725-0.85
		l40.88-21.52l40.88,21.52c3.915,2.048,8.749,0.535,10.797-3.38c0.806-1.541,1.088-3.304,0.803-5.02l-8-45.52l33.12-32
		c3.183-3.064,3.279-8.129,0.214-11.312c-1.232-1.28-2.856-2.113-4.614-2.368L287.635,202.27z M244.755,239.63
		c-1.879,1.825-2.746,4.455-2.32,7.04l5.76,33.68l-30.32-16c-2.329-1.223-5.111-1.223-7.44,0l-30.32,16l5.76-33.68
		c0.426-2.585-0.441-5.215-2.32-7.04l-24.48-24l33.84-4.96c2.602-0.391,4.845-2.036,6-4.4l15.36-30.48l15.12,30.32
		c1.155,2.364,3.398,4.009,6,4.4l33.84,4.96L244.755,239.63z"/>
</g>
<g>
</g>
<g>
</g>
<g>
</g>
<g>
</g>
<g>
</g>
<g>
</g>
<g>
</g>
<g>
</g>
<g>
</g>
<g>
</g>
<g>
</g>
<g>
</g>
<g>
</g>
<g>
</g>
<g>
</g>
</svg>
