<?xml version="1.0" encoding="iso-8859-1"?>
<!-- Generator: Adobe Illustrator 19.0.0, SVG Export Plug-In . SVG Version: 6.00 Build 0)  -->
<svg version="1.1" id="Capa_1" xmlns="http://www.w3.org/2000/svg" xmlns:xlink="http://www.w3.org/1999/xlink" x="0px" y="0px"
	 viewBox="0 0 415.142 415.142" style="enable-background:new 0 0 415.142 415.142;" xml:space="preserve">
<path style="fill:#0077B0;" d="M148.81,262.96l-38.64-1.52l-18.16,28.08l-38-33.52l-3.76-33.36L9.29,171.2h100.08V9.04h109.92
	v334.32L148.81,262.96z M164.81,155.36l-6.4,13.2l-1.84,3.76l-19.28,2.8l13.92,13.6L147.29,208l17.2-9.04l17.28,9.04l-3.28-19.2
	l13.92-13.6l-19.28-2.8l-8.64-17.44L164.81,155.36z"/>
<g>
	<path style="fill:#FFFFFF;" d="M219.29,179.6V88.56h50.64l0.88,21.28h113.76v69.76H219.29z"/>
	<path style="fill:#FFFFFF;" d="M164.57,198.96L147.29,208l3.36-19.2l-14-13.52l19.28-2.8l8.64-17.44l8.56,17.44l19.28,2.8
		l-13.92,13.52l3.28,19.2L164.57,198.96z"/>
</g>
<path style="fill:#FF5148;" d="M219.29,380.48V179.6h165.28l21.2,40.88l-75.04,82.64l-28.08,1.52L276.89,338v69.04L219.29,380.48z"
	/>
<g>
	<path style="fill:#281211;" d="M392.57,177.6v-67.76c0-4.418-3.582-8-8-8H278.49L277.93,88c0-4.418-3.582-8-8-8h-42.64V8
		c0-4.418-3.582-8-8-8H109.37c-4.418,0-8,3.582-8,8v155.2H9.29c-4.417,0.088-7.927,3.74-7.84,8.157
		c0.033,1.677,0.593,3.301,1.6,4.643l39.52,49.76l3.52,31.12c0.214,1.975,1.155,3.8,2.64,5.12l37.92,33.36
		c3.321,2.914,8.376,2.583,11.29-0.738c0.26-0.296,0.497-0.611,0.71-0.942l16-24l30.72,1.2l66.24,75.52v34.16
		c-0.008,3.125,1.804,5.968,4.64,7.28l57.6,26.56c4.01,1.856,8.765,0.11,10.62-3.9c0.49-1.059,0.743-2.213,0.74-3.38v-66.4
		l21.84-28.32l24-1.28c2.117-0.114,4.103-1.063,5.52-2.64l75.04-82.64c2.246-2.468,2.725-6.071,1.2-9.04L392.57,177.6z
		 M211.29,322.08l-56.48-64c-1.442-1.645-3.494-2.628-5.68-2.72l-38.64-1.52c-2.72,0.005-5.251,1.391-6.72,3.68l-13.12,20.24
		l-28.64-25.2l-3.44-30.32c-0.166-1.491-0.749-2.904-1.68-4.08L25.85,179.2h83.52c4.418,0,8-3.582,8-8V17.04h93.92V322.08z
		 M227.29,96.64h34.96l0.56,13.6c0,4.418,3.582,8,8,8h105.76V172H227.29V96.64z M327.05,295.36l-24.8,1.36
		c-2.334,0.125-4.497,1.265-5.92,3.12l-25.76,33.36c-1.084,1.396-1.674,3.112-1.68,4.88v56.48l-41.6-19.2V187.6h152l16.4,32
		L327.05,295.36z"/>
	<path style="fill:#281211;" d="M142.01,192l-2.56,15.04c-0.724,4.359,2.222,8.479,6.58,9.203c1.716,0.285,3.478,0.003,5.02-0.803
		l13.52-7.44l13.52,7.12c3.915,2.048,8.749,0.535,10.797-3.38c0.806-1.541,1.088-3.304,0.803-5.02L187.05,192l10.88-10.64
		c3.183-3.064,3.279-8.129,0.214-11.312c-1.232-1.28-2.856-2.113-4.614-2.368l-15.12-2.16l-6.72-13.68
		c-1.971-3.954-6.774-5.562-10.729-3.591c-1.555,0.775-2.816,2.036-3.591,3.591l-6.72,13.68l-15.12,1.84
		c-4.372,0.634-7.403,4.693-6.768,9.066c0.255,1.758,1.088,3.382,2.368,4.614L142.01,192z M157.05,180.72
		c2.602-0.391,4.845-2.036,6-4.4l1.44-2.88l1.44,2.88c1.155,2.364,3.398,4.009,6,4.4l3.2,0.48l-2.32,2.24
		c-1.905,1.843-2.774,4.509-2.32,7.12l0.56,3.2l-2.8-1.76c-2.329-1.223-5.111-1.223-7.44,0l-2.88,1.52l0.56-3.2
		c0.454-2.611-0.415-5.277-2.32-7.12l-2.32-2.24L157.05,180.72z"/>
</g>
<g>
</g>
<g>
</g>
<g>
</g>
<g>
</g>
<g>
</g>
<g>
</g>
<g>
</g>
<g>
</g>
<g>
</g>
<g>
</g>
<g>
</g>
<g>
</g>
<g>
</g>
<g>
</g>
<g>
</g>
</svg>
